<svg xmlns="http://www.w3.org/2000/svg" width="32" height="32" viewBox="0 0 32 32" fill="none">
  <g clip-path="url(#clip0_1_486)">
    <path d="M25.543 18.7717L24.2528 9.835C23.9214 7.53666 21.921 5.83333 19.5656 5.83333H8.84175C6.4863 5.83333 4.48594 7.53666 4.15452 9.835L2.86434 18.7717C2.60394 20.5683 4.01248 22.1667 5.84713 22.1667C6.65201 22.1667 7.40954 21.8517 7.97769 21.2917L10.6527 18.6667H17.7546L20.4178 21.2917C20.9859 21.8517 21.7553 22.1667 22.5484 22.1667C24.3948 22.1667 25.8034 20.5683 25.543 18.7717ZM13.02 12.8333H10.6527V15.1667H9.46908V12.8333H7.10179V11.6667H9.46908V9.33333H10.6527V11.6667H13.02V12.8333ZM17.7546 11.6667C17.1036 11.6667 16.571 11.1417 16.571 10.5C16.571 9.85833 17.1036 9.33333 17.7546 9.33333C18.4056 9.33333 18.9382 9.85833 18.9382 10.5C18.9382 11.1417 18.4056 11.6667 17.7546 11.6667ZM20.1219 15.1667C19.4709 15.1667 18.9382 14.6417 18.9382 14C18.9382 13.3583 19.4709 12.8333 20.1219 12.8333C20.7729 12.8333 21.3055 13.3583 21.3055 14C21.3055 14.6417 20.7729 15.1667 20.1219 15.1667Z" fill="#2A7AE4"/>
  </g>
  <defs>
    <clipPath id="clip0_1_486">
      <rect width="32" height="32" fill="white"/>
    </clipPath>
  </defs>
</svg>